<svg width="256" height="256" viewBox="0 0 256 256" fill="none" xmlns="http://www.w3.org/2000/svg">
  <defs>
    <linearGradient id="bg" x1="36" y1="28" x2="220" y2="228" gradientUnits="userSpaceOnUse">
      <stop stop-color="#0D1B2A"/>
      <stop offset="1" stop-color="#102A43"/>
    </linearGradient>
    <linearGradient id="glass" x1="82" y1="82" x2="182" y2="182" gradientUnits="userSpaceOnUse">
      <stop stop-color="#62D6FF"/>
      <stop offset="1" stop-color="#1CA7EC"/>
    </linearGradient>
    <linearGradient id="json" x1="50" y1="46" x2="162" y2="162" gradientUnits="userSpaceOnUse">
      <stop stop-color="#9CFFD8"/>
      <stop offset="1" stop-color="#39E0C2"/>
    </linearGradient>
    <filter id="shadow" x="0" y="0" width="256" height="256" filterUnits="userSpaceOnUse" color-interpolation-filters="sRGB">
      <feDropShadow dx="0" dy="10" stdDeviation="14" flood-color="#021018" flood-opacity="0.28"/>
    </filter>
  </defs>

  <rect x="20" y="20" width="216" height="216" rx="42" fill="url(#bg)"/>

  <g filter="url(#shadow)">
    <rect x="42" y="48" width="108" height="128" rx="20" fill="#132034" stroke="#355278" stroke-width="3.5"/>

<g transform="translate(0,6)">
    <rect x="56" y="68" width="78" height="8.5" rx="4.25" fill="#355678"/>
    <rect x="56" y="87" width="60" height="8.5" rx="4.25" fill="#355678"/>
    <rect x="56" y="106" width="67" height="8.5" rx="4.25" fill="#355678"/>
    <rect x="56" y="125" width="52" height="8.5" rx="4.25" fill="#355678"/>
</g>

<g transform="translate(0,-20)">
    <path d="M80 95C71 95 66 100 66 108V116C66 123 62 127 56 130C62 133 66 137 66 144V152C66 160 71 165 80 165" stroke="url(#json)" stroke-width="8.5" stroke-linecap="round" stroke-linejoin="round"/>
    <path d="M112 95C121 95 126 100 126 108V116C126 123 130 127 136 130C130 133 126 137 126 144V152C126 160 121 165 112 165" stroke="url(#json)" stroke-width="8.5" stroke-linecap="round" stroke-linejoin="round"/>

    <circle cx="96" cy="108" r="6.5" fill="#B8FFE5"/>
    <circle cx="96" cy="129" r="6.5" fill="#B8FFE5"/>
    <circle cx="96" cy="150" r="6.5" fill="#B8FFE5"/>
</g>

    <circle cx="168" cy="162" r="34" fill="url(#bg)" stroke="url(#glass)" stroke-width="14"/>
    <path d="M191 187L214 210" stroke="#62D6FF" stroke-width="14" stroke-linecap="round"/>
    <circle cx="168" cy="162" r="18" fill="#0F2236" opacity="0.95"/>
    <path d="M156 162H180" stroke="#9AE6FF" stroke-width="4.5" stroke-linecap="round"/>
    <path d="M168 150V174" stroke="#9AE6FF" stroke-width="4.5" stroke-linecap="round" opacity="0.8"/>
  </g>
</svg>
